
<svg width="192" height="192" viewBox="0 0 512 512" xmlns="http://www.w3.org/2000/svg">
  <defs>
    <linearGradient id="topGradient" x1="0%" y1="0%" x2="100%" y2="100%">
      <stop offset="0%" style="stop-color:#ffffff;stop-opacity:1" />
      <stop offset="100%" style="stop-color:#e5e7eb;stop-opacity:1" />
    </linearGradient>
    <linearGradient id="leftGradient" x1="0%" y1="0%" x2="100%" y2="100%">
      <stop offset="0%" style="stop-color:#3b82f6;stop-opacity:1" />
      <stop offset="100%" style="stop-color:#1d4ed8;stop-opacity:1" />
    </linearGradient>
    <linearGradient id="rightGradient" x1="0%" y1="0%" x2="100%" y2="100%">
      <stop offset="0%" style="stop-color:#ef4444;stop-opacity:1" />
      <stop offset="100%" style="stop-color:#dc2626;stop-opacity:1" />
    </linearGradient>
  </defs>

  <rect width="512" height="512" fill="#000000" rx="80"/>

  <ellipse cx="256" cy="450" rx="120" ry="30" fill="#000000" opacity="0.2"/>

  <g transform="translate(256,256)">
    <path d="M -100,-60 L 0,-120 L 100,-60 L 0,0 Z" fill="url(#topGradient)" stroke="#000" stroke-width="2"/>
    <path d="M -100,-60 L 0,0 L 0,120 L -100,60 Z" fill="url(#leftGradient)" stroke="#000" stroke-width="2"/>
    <path d="M 0,0 L 100,-60 L 100,60 L 0,120 Z" fill="url(#rightGradient)" stroke="#000" stroke-width="2"/>

    <g stroke="#000" stroke-width="1" opacity="0.3">
      <line x1="-67" y1="-80" x2="33" y2="-40"/>
      <line x1="-33" y1="-100" x2="67" y2="-60"/>
      <line x1="-67" y1="-40" x2="-33" y2="-100"/>
      <line x1="-33" y1="-20" x2="33" y2="-80"/>
    </g>

    <g stroke="#000" stroke-width="1" opacity="0.3">
      <line x1="-67" y1="-20" x2="-67" y2="20"/>
      <line x1="-33" y1="0" x2="-33" y2="40"/>
      <line x1="-67" y1="-20" x2="-33" y2="0"/>
      <line x1="-67" y1="20" x2="-33" y2="40"/>
    </g>

    <g stroke="#000" stroke-width="1" opacity="0.3">
      <line x1="33" y1="-20" x2="33" y2="20"/>
      <line x1="67" y1="0" x2="67" y2="40"/>
      <line x1="33" y1="-20" x2="67" y2="0"/>
      <line x1="33" y1="20" x2="67" y2="40"/>
    </g>
  </g>
</svg>
  