<?xml version="1.0" encoding="UTF-8"?>
<svg width="1200" height="630" viewBox="0 0 1200 630"
     xmlns="http://www.w3.org/2000/svg">

  <!-- Background gradient -->
  <defs>
    <radialGradient id="bgGradient" cx="25%" cy="25%" r="75%">
      <stop offset="0%" style="stop-color:#1e40af;stop-opacity:0.8"/>
      <stop offset="100%" style="stop-color:#0f0f23;stop-opacity:1"/>
    </radialGradient>
    <radialGradient id="accentGradient" cx="75%" cy="75%" r="50%">
      <stop offset="0%" style="stop-color:#dc2626;stop-opacity:0.6"/>
      <stop offset="100%" style="stop-color:#0f0f23;stop-opacity:0"/>
    </radialGradient>
    <linearGradient id="titleGradient" x1="0%" y1="0%" x2="100%" y2="0%">
      <stop offset="0%" style="stop-color:#3b82f6"/>
      <stop offset="100%" style="stop-color:#ef4444"/>
    </linearGradient>
  </defs>

  <!-- Background -->
  <rect width="100%" height="100%" fill="#0f0f23"/>
  <rect width="100%" height="100%" fill="url(#bgGradient)"/>
  <rect width="100%" height="100%" fill="url(#accentGradient)"/>

  <!-- Grid pattern overlay -->
  <defs>
    <pattern id="grid" width="50" height="50" patternUnits="userSpaceOnUse">
      <path d="M 50 0 L 0 0 0 50" fill="none" stroke="rgba(255,255,255,0.1)" stroke-width="1"/>
    </pattern>
  </defs>
  <rect width="100%" height="100%" fill="url(#grid)" opacity="0.3"/>

  <!-- Cube shadow -->
  <ellipse cx="238.97114317029974" cy="417"
           rx="70.14805770653953" ry="18" fill="#000" opacity="0.4"/>

  <!-- Cube stickers -->
  <path d="M 200.0,225.0 L 226.0,240.0 L 200.0,255.0 L 174.0,240.0 Z" fill="#ffffff" stroke="#191919" stroke-width="2"/>
  <path d="M 226.0,240.0 L 252.0,255.0 L 226.0,270.0 L 200.0,255.0 Z" fill="#ffffff" stroke="#191919" stroke-width="2"/>
  <path d="M 252.0,255.0 L 277.9,270.0 L 252.0,285.0 L 226.0,270.0 Z" fill="#ffffff" stroke="#191919" stroke-width="2"/>
  <path d="M 174.0,240.0 L 200.0,255.0 L 174.0,270.0 L 148.0,255.0 Z" fill="#ffffff" stroke="#191919" stroke-width="2"/>
  <path d="M 200.0,255.0 L 226.0,270.0 L 200.0,285.0 L 174.0,270.0 Z" fill="#ffffff" stroke="#191919" stroke-width="2"/>
  <path d="M 226.0,270.0 L 252.0,285.0 L 226.0,300.0 L 200.0,285.0 Z" fill="#ffffff" stroke="#191919" stroke-width="2"/>
  <path d="M 148.0,255.0 L 174.0,270.0 L 148.0,285.0 L 122.1,270.0 Z" fill="#ffffff" stroke="#191919" stroke-width="2"/>
  <path d="M 174.0,270.0 L 200.0,285.0 L 174.0,300.0 L 148.0,285.0 Z" fill="#ffffff" stroke="#191919" stroke-width="2"/>
  <path d="M 200.0,285.0 L 226.0,300.0 L 200.0,315.0 L 174.0,300.0 Z" fill="#ffffff" stroke="#191919" stroke-width="2"/>
  <path d="M 277.9,270.0 L 252.0,285.0 L 252.0,315.0 L 277.9,300.0 Z" fill="#009E60" stroke="#191919" stroke-width="2"/>
  <path d="M 252.0,285.0 L 226.0,300.0 L 226.0,330.0 L 252.0,315.0 Z" fill="#009E60" stroke="#191919" stroke-width="2"/>
  <path d="M 226.0,300.0 L 200.0,315.0 L 200.0,345.0 L 226.0,330.0 Z" fill="#009E60" stroke="#191919" stroke-width="2"/>
  <path d="M 277.9,300.0 L 252.0,315.0 L 252.0,345.0 L 277.9,330.0 Z" fill="#009E60" stroke="#191919" stroke-width="2"/>
  <path d="M 252.0,315.0 L 226.0,330.0 L 226.0,360.0 L 252.0,345.0 Z" fill="#009E60" stroke="#191919" stroke-width="2"/>
  <path d="M 226.0,330.0 L 200.0,345.0 L 200.0,375.0 L 226.0,360.0 Z" fill="#009E60" stroke="#191919" stroke-width="2"/>
  <path d="M 277.9,330.0 L 252.0,345.0 L 252.0,375.0 L 277.9,360.0 Z" fill="#009E60" stroke="#191919" stroke-width="2"/>
  <path d="M 252.0,345.0 L 226.0,360.0 L 226.0,390.0 L 252.0,375.0 Z" fill="#009E60" stroke="#191919" stroke-width="2"/>
  <path d="M 226.0,360.0 L 200.0,375.0 L 200.0,405.0 L 226.0,390.0 Z" fill="#009E60" stroke="#191919" stroke-width="2"/>
  <path d="M 122.1,270.0 L 148.0,285.0 L 148.0,315.0 L 122.1,300.0 Z" fill="#FF5800" stroke="#191919" stroke-width="2"/>
  <path d="M 148.0,285.0 L 174.0,300.0 L 174.0,330.0 L 148.0,315.0 Z" fill="#FF5800" stroke="#191919" stroke-width="2"/>
  <path d="M 174.0,300.0 L 200.0,315.0 L 200.0,345.0 L 174.0,330.0 Z" fill="#FF5800" stroke="#191919" stroke-width="2"/>
  <path d="M 122.1,300.0 L 148.0,315.0 L 148.0,345.0 L 122.1,330.0 Z" fill="#FF5800" stroke="#191919" stroke-width="2"/>
  <path d="M 148.0,315.0 L 174.0,330.0 L 174.0,360.0 L 148.0,345.0 Z" fill="#FF5800" stroke="#191919" stroke-width="2"/>
  <path d="M 174.0,330.0 L 200.0,345.0 L 200.0,375.0 L 174.0,360.0 Z" fill="#FF5800" stroke="#191919" stroke-width="2"/>
  <path d="M 122.1,330.0 L 148.0,345.0 L 148.0,375.0 L 122.1,360.0 Z" fill="#FF5800" stroke="#191919" stroke-width="2"/>
  <path d="M 148.0,345.0 L 174.0,360.0 L 174.0,390.0 L 148.0,375.0 Z" fill="#FF5800" stroke="#191919" stroke-width="2"/>
  <path d="M 174.0,360.0 L 200.0,375.0 L 200.0,405.0 L 174.0,390.0 Z" fill="#FF5800" stroke="#191919" stroke-width="2"/>

  <!-- Cube outlines -->
  <path d="M 122.1,270.0 L 200.0,315.0 L 200.0,405.0 L 122.1,360.0 Z" fill="none" stroke="#191919" stroke-width="3"/>
  <path d="M 277.9,270.0 L 200.0,315.0 L 200.0,405.0 L 277.9,360.0 Z" fill="none" stroke="#191919" stroke-width="3"/>
  <path d="M 200.0,225.0 L 277.9,270.0 L 200.0,315.0 L 122.1,270.0 Z" fill="none" stroke="#191919" stroke-width="3"/>

  <!-- Main title -->
  <text x="350" y="200" font-family="system-ui, -apple-system, sans-serif"
        font-size="72" font-weight="bold" fill="url(#titleGradient)">
    Rubik's Cube Timer
  </text>

  <!-- Subtitle -->
  <text x="350" y="280" font-family="system-ui, -apple-system, sans-serif"
        font-size="32" font-weight="500" fill="#94a3b8">
    Professional Speedcubing Timer
  </text>

  <!-- Feature badges -->
  <g transform="translate(350, 360)">
    <!-- Statistics badge -->
    <rect x="0" y="0" width="140" height="40" rx="20" fill="rgba(59, 130, 246, 0.2)"
          stroke="rgba(59, 130, 246, 0.3)" stroke-width="1"/>
    <text x="70" y="26" font-family="system-ui, -apple-system, sans-serif"
          font-size="16" font-weight="500" fill="#93c5fd" text-anchor="middle">
      Statistics
    </text>

    <!-- Analytics badge -->
    <rect x="160" y="0" width="120" height="40" rx="20" fill="rgba(59, 130, 246, 0.2)"
          stroke="rgba(59, 130, 246, 0.3)" stroke-width="1"/>
    <text x="220" y="26" font-family="system-ui, -apple-system, sans-serif"
          font-size="16" font-weight="500" fill="#93c5fd" text-anchor="middle">
      Analytics
    </text>

    <!-- Offline badge -->
    <rect x="300" y="0" width="140" height="40" rx="20" fill="rgba(59, 130, 246, 0.2)"
          stroke="rgba(59, 130, 246, 0.3)" stroke-width="1"/>
    <text x="370" y="26" font-family="system-ui, -apple-system, sans-serif"
          font-size="16" font-weight="500" fill="#93c5fd" text-anchor="middle">
      Offline Support
    </text>
  </g>

  <!-- Domain/URL -->
  <text x="1160" y="600" font-family="system-ui, -apple-system, sans-serif"
        font-size="18" font-weight="500" fill="#64748b" text-anchor="end">
    rubikscubetimer.triformine.dev
  </text>

  <!-- Subtle accent elements -->
  <circle cx="1050" cy="150" r="100" fill="rgba(59, 130, 246, 0.1)"/>
  <circle cx="950" cy="480" r="80" fill="rgba(239, 68, 68, 0.1)"/>

</svg>